<svg width="56.693" height="56.693" xmlns="http://www.w3.org/2000/svg">

 <g>
  <title>background</title>
  <rect fill="none" id="canvas_background" height="402" width="582" y="-1" x="-1"/>
 </g>
 <g>
  <title>Layer 1</title>
  <ellipse ry="25" rx="24.700211" id="svg_6" cy="25" cx="24.856844" stroke-opacity="null" stroke-width="null" stroke="null" fill="#000000"/>
  <path d="m32.777733,18.311359l-5.714008,0l0,-3.945604c0,-1.481766 0.932777,-1.827221 1.589756,-1.827221c0.655487,0 4.032326,0 4.032326,0l0,-6.514102l-5.553322,-0.02282c-6.164707,0 -7.567612,4.858428 -7.567612,7.967537l0,4.342211l-3.565189,0l0,6.712402l3.565189,0c0,8.614388 0,18.993824 0,18.993824l7.498852,0c0,0 0,-10.481735 0,-18.993824l5.060024,0l0.653984,-6.712402z"/>
  <path fill="#ffffff" id="svg_1" d="m32.777733,18.311359l-5.714008,0l0,-3.945604c0,-1.481766 0.932777,-1.827221 1.589756,-1.827221c0.655487,0 4.032326,0 4.032326,0l0,-6.514102l-5.553322,-0.02282c-6.164707,0 -7.567612,4.858428 -7.567612,7.967537l0,4.342211l-3.565189,0l0,6.712402l3.565189,0c0,8.614388 0,18.993824 0,18.993824l7.498852,0c0,0 0,-10.481735 0,-18.993824l5.060024,0l0.653984,-6.712402z"/>
 </g>
</svg>